<mxfile host="app.diagrams.net" agent="Mozilla/5.0 (Windows NT 10.0; Win64; x64) AppleWebKit/537.36 (KHTML, like Gecko) Chrome/128.0.0.0 Safari/537.36" version="24.7.15">
  <diagram id="R2lEEEUBdFMjLlhIrx00" name="Page-1">
    <mxGraphModel dx="527" dy="697" grid="1" gridSize="10" guides="1" tooltips="1" connect="1" arrows="1" fold="1" page="1" pageScale="1" pageWidth="850" pageHeight="1100" math="0" shadow="0" extFonts="Permanent Marker^https://fonts.googleapis.com/css?family=Permanent+Marker">
      <root>
        <mxCell id="0" />
        <mxCell id="1" parent="0" />
        <mxCell id="JWVumonW7M2Eq3lMKWgd-1" value="Patient" style="swimlane;childLayout=stackLayout;horizontal=1;startSize=50;horizontalStack=0;rounded=1;fontSize=14;fontStyle=0;strokeWidth=2;resizeParent=0;resizeLast=1;shadow=0;dashed=0;align=center;arcSize=4;whiteSpace=wrap;html=1;" vertex="1" parent="1">
          <mxGeometry x="830" y="800" width="160" height="120" as="geometry" />
        </mxCell>
        <mxCell id="JWVumonW7M2Eq3lMKWgd-2" value="&lt;u&gt;patient_id&lt;/u&gt;&lt;div&gt;name&lt;/div&gt;&lt;div&gt;contact_info&lt;/div&gt;&lt;div&gt;medical_history&lt;/div&gt;" style="align=left;strokeColor=none;fillColor=none;spacingLeft=4;fontSize=12;verticalAlign=top;resizable=0;rotatable=0;part=1;html=1;" vertex="1" parent="JWVumonW7M2Eq3lMKWgd-1">
          <mxGeometry y="50" width="160" height="70" as="geometry" />
        </mxCell>
        <mxCell id="JWVumonW7M2Eq3lMKWgd-3" value="Doctor" style="swimlane;childLayout=stackLayout;horizontal=1;startSize=50;horizontalStack=0;rounded=1;fontSize=14;fontStyle=0;strokeWidth=2;resizeParent=0;resizeLast=1;shadow=0;dashed=0;align=center;arcSize=4;whiteSpace=wrap;html=1;" vertex="1" parent="1">
          <mxGeometry x="830" y="580" width="160" height="120" as="geometry" />
        </mxCell>
        <mxCell id="JWVumonW7M2Eq3lMKWgd-4" value="&lt;u&gt;doctor_id&lt;/u&gt;&lt;div&gt;name&lt;/div&gt;&lt;div&gt;specialty&lt;/div&gt;&lt;div&gt;contact_info&lt;/div&gt;" style="align=left;strokeColor=none;fillColor=none;spacingLeft=4;fontSize=12;verticalAlign=top;resizable=0;rotatable=0;part=1;html=1;" vertex="1" parent="JWVumonW7M2Eq3lMKWgd-3">
          <mxGeometry y="50" width="160" height="70" as="geometry" />
        </mxCell>
        <mxCell id="JWVumonW7M2Eq3lMKWgd-5" value="Appointment" style="swimlane;childLayout=stackLayout;horizontal=1;startSize=50;horizontalStack=0;rounded=1;fontSize=14;fontStyle=0;strokeWidth=2;resizeParent=0;resizeLast=1;shadow=0;dashed=0;align=center;arcSize=4;whiteSpace=wrap;html=1;" vertex="1" parent="1">
          <mxGeometry x="575" y="580" width="160" height="120" as="geometry" />
        </mxCell>
        <mxCell id="JWVumonW7M2Eq3lMKWgd-6" value="&lt;u&gt;appointment_id&lt;/u&gt;&lt;div&gt;appointment_date&lt;/div&gt;&lt;div&gt;status&lt;/div&gt;" style="align=left;strokeColor=none;fillColor=none;spacingLeft=4;fontSize=12;verticalAlign=top;resizable=0;rotatable=0;part=1;html=1;" vertex="1" parent="JWVumonW7M2Eq3lMKWgd-5">
          <mxGeometry y="50" width="160" height="70" as="geometry" />
        </mxCell>
        <mxCell id="JWVumonW7M2Eq3lMKWgd-7" style="edgeStyle=none;curved=1;rounded=0;orthogonalLoop=1;jettySize=auto;html=1;exitX=0.75;exitY=0;exitDx=0;exitDy=0;fontSize=12;startSize=8;endSize=8;" edge="1" parent="JWVumonW7M2Eq3lMKWgd-5" source="JWVumonW7M2Eq3lMKWgd-6" target="JWVumonW7M2Eq3lMKWgd-6">
          <mxGeometry relative="1" as="geometry" />
        </mxCell>
        <mxCell id="JWVumonW7M2Eq3lMKWgd-8" value="Diagnosis" style="swimlane;childLayout=stackLayout;horizontal=1;startSize=50;horizontalStack=0;rounded=1;fontSize=14;fontStyle=0;strokeWidth=2;resizeParent=0;resizeLast=1;shadow=0;dashed=0;align=center;arcSize=4;whiteSpace=wrap;html=1;" vertex="1" parent="1">
          <mxGeometry x="575" y="140" width="160" height="120" as="geometry" />
        </mxCell>
        <mxCell id="JWVumonW7M2Eq3lMKWgd-9" value="&lt;u&gt;diagnosis_id&lt;/u&gt;&lt;div&gt;description&lt;/div&gt;" style="align=left;strokeColor=none;fillColor=none;spacingLeft=4;fontSize=12;verticalAlign=top;resizable=0;rotatable=0;part=1;html=1;" vertex="1" parent="JWVumonW7M2Eq3lMKWgd-8">
          <mxGeometry y="50" width="160" height="70" as="geometry" />
        </mxCell>
        <mxCell id="JWVumonW7M2Eq3lMKWgd-10" value="Visit" style="swimlane;childLayout=stackLayout;horizontal=1;startSize=50;horizontalStack=0;rounded=1;fontSize=14;fontStyle=0;strokeWidth=2;resizeParent=0;resizeLast=1;shadow=0;dashed=0;align=center;arcSize=4;whiteSpace=wrap;html=1;" vertex="1" parent="1">
          <mxGeometry x="575" y="370" width="160" height="120" as="geometry" />
        </mxCell>
        <mxCell id="JWVumonW7M2Eq3lMKWgd-11" value="&lt;u&gt;visit_id&lt;/u&gt;&lt;div&gt;visit_date&lt;/div&gt;" style="align=left;strokeColor=none;fillColor=none;spacingLeft=4;fontSize=12;verticalAlign=top;resizable=0;rotatable=0;part=1;html=1;" vertex="1" parent="JWVumonW7M2Eq3lMKWgd-10">
          <mxGeometry y="50" width="160" height="70" as="geometry" />
        </mxCell>
        <mxCell id="JWVumonW7M2Eq3lMKWgd-14" value="Treament" style="swimlane;childLayout=stackLayout;horizontal=1;startSize=50;horizontalStack=0;rounded=1;fontSize=14;fontStyle=0;strokeWidth=2;resizeParent=0;resizeLast=1;shadow=0;dashed=0;align=center;arcSize=4;whiteSpace=wrap;html=1;" vertex="1" parent="1">
          <mxGeometry x="330" y="370" width="160" height="120" as="geometry" />
        </mxCell>
        <mxCell id="JWVumonW7M2Eq3lMKWgd-15" value="&lt;u&gt;treatment_id&lt;/u&gt;&lt;div&gt;description&lt;/div&gt;" style="align=left;strokeColor=none;fillColor=none;spacingLeft=4;fontSize=12;verticalAlign=top;resizable=0;rotatable=0;part=1;html=1;" vertex="1" parent="JWVumonW7M2Eq3lMKWgd-14">
          <mxGeometry y="50" width="160" height="70" as="geometry" />
        </mxCell>
        <mxCell id="JWVumonW7M2Eq3lMKWgd-16" value="Bill" style="swimlane;childLayout=stackLayout;horizontal=1;startSize=50;horizontalStack=0;rounded=1;fontSize=14;fontStyle=0;strokeWidth=2;resizeParent=0;resizeLast=1;shadow=0;dashed=0;align=center;arcSize=4;whiteSpace=wrap;html=1;" vertex="1" parent="1">
          <mxGeometry x="1050" y="370" width="160" height="120" as="geometry" />
        </mxCell>
        <mxCell id="JWVumonW7M2Eq3lMKWgd-17" value="&lt;u&gt;bill_id&lt;/u&gt;&lt;div&gt;amount&lt;/div&gt;&lt;div&gt;status&lt;/div&gt;" style="align=left;strokeColor=none;fillColor=none;spacingLeft=4;fontSize=12;verticalAlign=top;resizable=0;rotatable=0;part=1;html=1;" vertex="1" parent="JWVumonW7M2Eq3lMKWgd-16">
          <mxGeometry y="50" width="160" height="70" as="geometry" />
        </mxCell>
        <mxCell id="JWVumonW7M2Eq3lMKWgd-18" value="Payment" style="swimlane;childLayout=stackLayout;horizontal=1;startSize=50;horizontalStack=0;rounded=1;fontSize=14;fontStyle=0;strokeWidth=2;resizeParent=0;resizeLast=1;shadow=0;dashed=0;align=center;arcSize=4;whiteSpace=wrap;html=1;" vertex="1" parent="1">
          <mxGeometry x="1050" y="580" width="160" height="120" as="geometry" />
        </mxCell>
        <mxCell id="JWVumonW7M2Eq3lMKWgd-19" value="&lt;u&gt;payment_id&lt;/u&gt;&lt;div&gt;payment_date&lt;/div&gt;&lt;div&gt;amount&lt;/div&gt;&lt;div&gt;payment_method&lt;/div&gt;" style="align=left;strokeColor=none;fillColor=none;spacingLeft=4;fontSize=12;verticalAlign=top;resizable=0;rotatable=0;part=1;html=1;" vertex="1" parent="JWVumonW7M2Eq3lMKWgd-18">
          <mxGeometry y="50" width="160" height="70" as="geometry" />
        </mxCell>
        <mxCell id="JWVumonW7M2Eq3lMKWgd-20" value="Insurance" style="swimlane;childLayout=stackLayout;horizontal=1;startSize=50;horizontalStack=0;rounded=1;fontSize=14;fontStyle=0;strokeWidth=2;resizeParent=0;resizeLast=1;shadow=0;dashed=0;align=center;arcSize=4;whiteSpace=wrap;html=1;" vertex="1" parent="1">
          <mxGeometry x="1290" y="580" width="160" height="120" as="geometry" />
        </mxCell>
        <mxCell id="JWVumonW7M2Eq3lMKWgd-21" value="&lt;u&gt;insurance_id&lt;/u&gt;&lt;div&gt;company_name&lt;/div&gt;&lt;div&gt;policy_number&lt;/div&gt;&lt;div&gt;coverage_dtails&lt;/div&gt;" style="align=left;strokeColor=none;fillColor=none;spacingLeft=4;fontSize=12;verticalAlign=top;resizable=0;rotatable=0;part=1;html=1;" vertex="1" parent="JWVumonW7M2Eq3lMKWgd-20">
          <mxGeometry y="50" width="160" height="70" as="geometry" />
        </mxCell>
        <mxCell id="JWVumonW7M2Eq3lMKWgd-28" style="edgeStyle=none;curved=1;rounded=0;orthogonalLoop=1;jettySize=auto;html=1;entryX=1;entryY=0;entryDx=0;entryDy=0;fontSize=12;startSize=8;endSize=8;startArrow=ERmandOne;startFill=0;endArrow=ERzeroToOne;endFill=0;exitX=0;exitY=0;exitDx=0;exitDy=0;" edge="1" parent="1" source="JWVumonW7M2Eq3lMKWgd-11" target="JWVumonW7M2Eq3lMKWgd-15">
          <mxGeometry relative="1" as="geometry">
            <mxPoint x="400" y="524.9999999999998" as="sourcePoint" />
            <mxPoint x="400" y="735.0000000000002" as="targetPoint" />
          </mxGeometry>
        </mxCell>
        <mxCell id="JWVumonW7M2Eq3lMKWgd-30" style="edgeStyle=none;curved=1;rounded=0;orthogonalLoop=1;jettySize=auto;html=1;exitX=0.5;exitY=1;exitDx=0;exitDy=0;entryX=0.5;entryY=0;entryDx=0;entryDy=0;fontSize=12;startSize=8;endSize=8;startArrow=ERmandOne;startFill=0;endArrow=ERmandOne;endFill=0;" edge="1" parent="1" source="JWVumonW7M2Eq3lMKWgd-11" target="JWVumonW7M2Eq3lMKWgd-5">
          <mxGeometry relative="1" as="geometry">
            <mxPoint x="550" y="499.9999999999998" as="sourcePoint" />
            <mxPoint x="550" y="609.9999999999998" as="targetPoint" />
          </mxGeometry>
        </mxCell>
        <mxCell id="JWVumonW7M2Eq3lMKWgd-31" value="" style="edgeStyle=entityRelationEdgeStyle;fontSize=12;html=1;endArrow=ERmandOne;startArrow=ERmandOne;rounded=0;startSize=8;endSize=8;curved=1;exitX=1;exitY=0.25;exitDx=0;exitDy=0;entryX=0;entryY=0.25;entryDx=0;entryDy=0;" edge="1" parent="1" source="JWVumonW7M2Eq3lMKWgd-10" target="JWVumonW7M2Eq3lMKWgd-16">
          <mxGeometry width="100" height="100" relative="1" as="geometry">
            <mxPoint x="530" y="447" as="sourcePoint" />
            <mxPoint x="585" y="447" as="targetPoint" />
            <Array as="points">
              <mxPoint x="1100" y="280" />
              <mxPoint x="940" y="260" />
              <mxPoint x="910" y="320" />
              <mxPoint x="1120" y="260" />
              <mxPoint x="830" y="380" />
            </Array>
          </mxGeometry>
        </mxCell>
        <mxCell id="JWVumonW7M2Eq3lMKWgd-33" style="edgeStyle=none;curved=1;rounded=0;orthogonalLoop=1;jettySize=auto;html=1;fontSize=12;startSize=8;endSize=8;startArrow=ERmandOne;startFill=0;endArrow=ERoneToMany;endFill=0;entryX=0;entryY=0.5;entryDx=0;entryDy=0;exitX=0.5;exitY=0;exitDx=0;exitDy=0;" edge="1" parent="1" source="JWVumonW7M2Eq3lMKWgd-3" target="JWVumonW7M2Eq3lMKWgd-17">
          <mxGeometry relative="1" as="geometry">
            <Array as="points">
              <mxPoint x="910" y="460" />
            </Array>
          </mxGeometry>
        </mxCell>
        <mxCell id="JWVumonW7M2Eq3lMKWgd-34" style="edgeStyle=none;curved=1;rounded=0;orthogonalLoop=1;jettySize=auto;html=1;exitX=0.5;exitY=1;exitDx=0;exitDy=0;fontSize=12;startSize=8;endSize=8;startArrow=ERoneToMany;startFill=0;endArrow=ERoneToMany;endFill=0;entryX=0.5;entryY=0;entryDx=0;entryDy=0;" edge="1" parent="1" source="JWVumonW7M2Eq3lMKWgd-16" target="JWVumonW7M2Eq3lMKWgd-18">
          <mxGeometry relative="1" as="geometry">
            <mxPoint x="1040" y="470" as="sourcePoint" />
            <mxPoint x="1040" y="560" as="targetPoint" />
          </mxGeometry>
        </mxCell>
        <mxCell id="JWVumonW7M2Eq3lMKWgd-35" style="edgeStyle=none;curved=1;rounded=0;orthogonalLoop=1;jettySize=auto;html=1;exitX=0.5;exitY=1;exitDx=0;exitDy=0;fontSize=12;startSize=8;endSize=8;startArrow=ERoneToMany;startFill=0;endArrow=ERoneToMany;endFill=0;entryX=1;entryY=0;entryDx=0;entryDy=0;" edge="1" parent="1" source="JWVumonW7M2Eq3lMKWgd-18" target="JWVumonW7M2Eq3lMKWgd-2">
          <mxGeometry relative="1" as="geometry">
            <mxPoint x="1280" y="690" as="sourcePoint" />
            <mxPoint x="1280" y="780" as="targetPoint" />
            <Array as="points">
              <mxPoint x="1110" y="820" />
            </Array>
          </mxGeometry>
        </mxCell>
        <mxCell id="2PFquLMSmAH9nqFpd98c-1" style="edgeStyle=none;curved=1;rounded=0;orthogonalLoop=1;jettySize=auto;html=1;exitX=0;exitY=0;exitDx=0;exitDy=0;entryX=1;entryY=0;entryDx=0;entryDy=0;fontSize=12;startSize=8;endSize=8;startArrow=ERzeroToOne;startFill=0;endArrow=ERoneToMany;endFill=0;" edge="1" parent="1" source="JWVumonW7M2Eq3lMKWgd-21" target="JWVumonW7M2Eq3lMKWgd-19">
          <mxGeometry relative="1" as="geometry" />
        </mxCell>
        <mxCell id="2PFquLMSmAH9nqFpd98c-2" style="edgeStyle=none;curved=1;rounded=0;orthogonalLoop=1;jettySize=auto;html=1;exitX=0.5;exitY=1;exitDx=0;exitDy=0;entryX=0;entryY=0;entryDx=0;entryDy=0;fontSize=12;startSize=8;endSize=8;endArrow=ERmandOne;endFill=0;startArrow=ERoneToMany;startFill=0;" edge="1" parent="1" source="JWVumonW7M2Eq3lMKWgd-5" target="JWVumonW7M2Eq3lMKWgd-2">
          <mxGeometry relative="1" as="geometry">
            <Array as="points">
              <mxPoint x="660" y="840" />
            </Array>
          </mxGeometry>
        </mxCell>
        <mxCell id="2PFquLMSmAH9nqFpd98c-4" style="edgeStyle=none;curved=1;rounded=0;orthogonalLoop=1;jettySize=auto;html=1;exitX=0.5;exitY=1;exitDx=0;exitDy=0;entryX=0.5;entryY=0;entryDx=0;entryDy=0;fontSize=12;startSize=8;endSize=8;startArrow=ERmandOne;startFill=0;endArrow=ERmandOne;endFill=0;" edge="1" parent="1" source="JWVumonW7M2Eq3lMKWgd-8" target="JWVumonW7M2Eq3lMKWgd-10">
          <mxGeometry relative="1" as="geometry">
            <mxPoint x="650" y="170" as="sourcePoint" />
            <mxPoint x="650" y="260" as="targetPoint" />
          </mxGeometry>
        </mxCell>
        <mxCell id="2PFquLMSmAH9nqFpd98c-6" style="edgeStyle=none;curved=1;rounded=0;orthogonalLoop=1;jettySize=auto;html=1;entryX=1;entryY=0;entryDx=0;entryDy=0;fontSize=12;startSize=8;endSize=8;startArrow=ERmandOne;startFill=0;endArrow=ERzeroToMany;endFill=0;exitX=0;exitY=0;exitDx=0;exitDy=0;" edge="1" parent="1" source="JWVumonW7M2Eq3lMKWgd-4" target="JWVumonW7M2Eq3lMKWgd-6">
          <mxGeometry relative="1" as="geometry">
            <mxPoint x="835" y="530" as="sourcePoint" />
            <mxPoint x="750" y="530" as="targetPoint" />
          </mxGeometry>
        </mxCell>
      </root>
    </mxGraphModel>
  </diagram>
</mxfile>
